<?xml version="1.0" standalone="no"?>
<!DOCTYPE svg PUBLIC "-//W3C//DTD SVG 20010904//EN"
 "http://www.w3.org/TR/2001/REC-SVG-20010904/DTD/svg10.dtd">
<svg version="1.0" xmlns="http://www.w3.org/2000/svg"
 width="224.000000pt" height="224.000000pt" viewBox="0 0 224.000000 224.000000"
 preserveAspectRatio="xMidYMid meet">
<metadata>
Created by potrace 1.14, written by Peter Selinger 2001-2017
</metadata>
<g transform="translate(0.000000,224.000000) scale(0.100000,-0.100000)"
fill="#000000" stroke="none">
<path d="M1296 2133 c-4 -5 -70 -8 -146 -9 -149 0 -159 -3 -289 -67 -40 -21
-72 -45 -87 -67 -26 -39 -62 -136 -70 -190 -3 -19 -16 -51 -28 -70 -40 -63
-68 -142 -72 -206 -4 -60 -24 -112 -62 -156 -8 -10 -51 -36 -96 -59 -84 -42
-164 -115 -146 -133 6 -6 -6 -26 -31 -54 -43 -49 -47 -75 -12 -80 31 -5 74 20
129 76 27 27 59 52 72 56 12 4 22 13 22 19 0 11 39 42 44 35 9 -12 49 -169 56
-219 7 -52 14 -67 43 -93 30 -27 35 -40 42 -96 4 -36 11 -69 15 -75 4 -5 11
-28 15 -49 3 -22 18 -61 31 -88 13 -26 24 -61 24 -78 0 -29 -1 -30 -47 -31
-27 0 -69 0 -95 1 -63 2 -308 -76 -308 -98 0 -17 146 -156 215 -204 421 -298
975 -253 1338 108 66 66 76 80 64 92 -16 16 -36 20 -95 21 -36 1 -44 5 -52 26
-9 23 -14 25 -73 25 -38 0 -71 -6 -82 -14 -17 -12 -31 -12 -105 -2 -8 1 -21 5
-27 9 -18 11 -16 102 1 135 8 15 24 54 37 87 12 33 25 69 30 80 4 11 11 47 14
80 6 52 12 63 45 95 22 19 41 46 43 60 3 14 12 52 20 85 19 76 31 159 28 208
l-2 37 54 0 c49 0 145 24 157 40 3 4 19 13 35 21 129 64 137 83 51 126 -28 14
-59 34 -70 45 -16 17 -29 19 -95 17 -49 -2 -84 1 -99 9 -19 11 -30 11 -60 1
-71 -25 -68 -28 -70 89 -2 128 -48 254 -116 322 -50 50 -63 60 -95 71 -16 6
-39 23 -51 40 -24 30 -32 34 -44 22z"/>
</g>
</svg>
