<svg viewBox="0 0 64 64" xmlns="http://www.w3.org/2000/svg"><g stroke="#000" stroke-linecap="round" stroke-linejoin="round" stroke-width="2"><path d="m37.062 15.1177-31.1975 19.6971a4 4 0 0 0 -1.8645 3.3823v6.1894a3 3 0 0 0 1.3359 2.4962l13.4241 8.9494a6 6 0 0 0 6.5321.0806l33.3099-21.0377a3 3 0 0 0 1.398-2.5365v-6.733a3 3 0 0 0 -1.3359-2.4962l-11.8049-7.87a9 9 0 0 0 -9.7972-.1216z" fill="#81dee3"/><path d="m11.5 40.2661 8.41 5.607a4.3389 4.3389 0 0 0 4.7237.0583l29.8663-18.8626" fill="none"/><g fill="#fff"><circle cx="15" cy="26" r="6"/><circle cx="27" cy="11" r="4"/><circle cx="14" cy="12" r="2"/></g></g></svg>